<?xml version="1.0" encoding="UTF-8" standalone="no"?><!DOCTYPE svg PUBLIC "-//W3C//DTD SVG 1.1//EN" "http://www.w3.org/Graphics/SVG/1.1/DTD/svg11.dtd"><svg width="100%" height="100%" viewBox="0 0 245 240" version="1.1" xmlns="http://www.w3.org/2000/svg" xmlns:xlink="http://www.w3.org/1999/xlink" xml:space="preserve" xmlns:serif="http://www.serif.com/" style="fill-rule:evenodd;clip-rule:evenodd;stroke-linejoin:round;stroke-miterlimit:2;"><path d="M100.78,100.68c-6.84,0 -12.24,6 -12.24,13.32c0,7.32 5.52,13.32 12.24,13.32c6.84,0 12.24,-6 12.24,-13.32c0.12,-7.32 -5.4,-13.32 -12.24,-13.32Zm43.8,0c-6.84,0 -12.24,6 -12.24,13.32c0,7.32 5.52,13.32 12.24,13.32c6.84,0 12.24,-6 12.24,-13.32c0,-7.32 -5.4,-13.32 -12.24,-13.32Z" style="fill:#fff;fill-rule:nonzero;"/><path d="M202.9,0l-160.8,0c-13.56,0 -24.6,11.04 -24.6,24.72l0,162.24c0,13.68 11.04,24.72 24.6,24.72l136.08,0l-6.36,-22.2l15.36,14.28l14.52,13.44l25.8,22.8l0,-215.28c0,-13.68 -11.04,-24.72 -24.6,-24.72Zm-46.32,156.72c0,0 -4.32,-5.16 -7.92,-9.72c15.72,-4.44 21.72,-14.28 21.72,-14.28c-4.92,3.24 -9.6,5.52 -13.8,7.08c-6,2.52 -11.76,4.2 -17.4,5.16c-11.52,2.16 -22.08,1.56 -31.08,-0.12c-6.84,-1.32 -12.72,-3.24 -17.64,-5.16c-2.76,-1.08 -5.76,-2.4 -8.76,-4.08c-0.36,-0.24 -0.72,-0.36 -1.08,-0.6c-0.24,-0.12 -0.36,-0.24 -0.48,-0.36c-2.16,-1.2 -3.36,-2.04 -3.36,-2.04c0,0 5.76,9.6 21,14.16c-3.6,4.56 -8.04,9.96 -8.04,9.96c-26.52,-0.84 -36.6,-18.24 -36.6,-18.24c0,-38.64 17.28,-69.96 17.28,-69.96c17.28,-12.96 33.72,-12.6 33.72,-12.6l1.2,1.44c-21.6,6.24 -31.56,15.72 -31.56,15.72c0,0 2.64,-1.44 7.08,-3.48c12.84,-5.64 23.04,-7.2 27.24,-7.56c0.72,-0.12 1.32,-0.24 2.04,-0.24c7.32,-0.96 15.6,-1.2 24.24,-0.24c11.4,1.32 23.64,4.68 36.12,11.52c0,0 -9.48,-9 -29.88,-15.24l1.68,-1.92c0,0 16.44,-0.36 33.72,12.6c0,0 17.28,31.32 17.28,69.96c0,0 -10.2,17.4 -36.72,18.24Z" style="fill:#fff;fill-rule:nonzero;"/></svg>